<svg xmlns="http://www.w3.org/2000/svg" width="35.319" height="35.32" viewBox="0 0 35.319 35.32"><defs><style>.a{fill:#666;}</style></defs><path class="a" d="M286.357,274.59a.723.723,0,0,1,.248.549v28.8a.849.849,0,0,1-.815.815H252.1a.849.849,0,0,1-.815-.815v-28.8a.724.724,0,0,1,.248-.549.805.805,0,0,1,.567-.231h5.532v-4.113a.808.808,0,0,1,.23-.568.733.733,0,0,1,1.1,0,.813.813,0,0,1,.23.568v4.113h19.5v-4.113a.813.813,0,0,1,.23-.568.733.733,0,0,1,1.1,0,.813.813,0,0,1,.23.568v4.113h5.532A.807.807,0,0,1,286.357,274.59Zm-33.475,1.366v5.425h32.128v-5.425h-4.752v2.694a.793.793,0,0,1-.23.585.772.772,0,0,1-1.1,0,.793.793,0,0,1-.23-.585v-2.694h-19.5v2.694a.793.793,0,0,1-.23.585.772.772,0,0,1-1.1,0,.789.789,0,0,1-.23-.585v-2.694Zm32.128,27.2V282.977H252.882v20.178Zm-25.054-7.766a2.474,2.474,0,0,1,.762,1.844,2.512,2.512,0,0,1-.443,1.437,2.574,2.574,0,0,1-1.169.957,2.534,2.534,0,0,1-1.508.142,2.589,2.589,0,0,1-2.039-2.039,2.517,2.517,0,0,1,.142-1.508,2.468,2.468,0,0,1,.957-1.152,2.673,2.673,0,0,1,3.3.319Zm-4.45-4.078a.782.782,0,0,1,.248-.568l1.206-1.2-1.206-1.172a.777.777,0,0,1-.248-.566.752.752,0,0,1,.23-.55.771.771,0,0,1,.567-.23.749.749,0,0,1,.55.212l1.205,1.205,1.206-1.205a.747.747,0,0,1,.55-.212.775.775,0,0,1,.567.23.752.752,0,0,1,.23.55.781.781,0,0,1-.248.566l-1.171,1.172,1.171,1.2a.786.786,0,0,1,.248.568.751.751,0,0,1-.23.549.771.771,0,0,1-.567.231.744.744,0,0,1-.55-.213l-1.206-1.207-1.205,1.207a.816.816,0,0,1-1.1,0A.781.781,0,0,1,255.506,291.31Zm3.315,6.631a.932.932,0,0,0,.3-.709.949.949,0,0,0-.177-.567,1.106,1.106,0,0,0-.461-.372,1.006,1.006,0,0,0-.585-.071.9.9,0,0,0-.514.284,1.036,1.036,0,0,0-.266.531,1.1,1.1,0,0,0,.054.585.848.848,0,0,0,.372.443,1.045,1.045,0,0,0,.549.16A1.022,1.022,0,0,0,258.821,297.941Zm8.334-2.553a2.474,2.474,0,0,1,.762,1.844,2.591,2.591,0,0,1-.425,1.437,2.475,2.475,0,0,1-1.152.957,2.534,2.534,0,0,1-1.508.142,2.589,2.589,0,0,1-2.039-2.039,2.526,2.526,0,0,1,.142-1.508,2.468,2.468,0,0,1,.957-1.152,2.581,2.581,0,0,1,1.436-.425A2.524,2.524,0,0,1,267.155,295.388Zm-4.38-4.078a.781.781,0,0,1,.248-.568l1.207-1.2-1.207-1.172a.776.776,0,0,1-.248-.566.748.748,0,0,1,.231-.55.768.768,0,0,1,.567-.23.746.746,0,0,1,.549.212l1.205,1.205,1.207-1.205a.743.743,0,0,1,.549-.212.771.771,0,0,1,.567.23.752.752,0,0,1,.23.55.777.777,0,0,1-.248.566l-1.169,1.172,1.169,1.2a.782.782,0,0,1,.248.568.751.751,0,0,1-.23.549.768.768,0,0,1-.567.231.739.739,0,0,1-.549-.213l-1.207-1.207-1.205,1.207a.816.816,0,0,1-1.1,0A.781.781,0,0,1,262.775,291.31Zm3.28,6.631a.932.932,0,0,0,.3-.709.95.95,0,0,0-.177-.567,1.106,1.106,0,0,0-.461-.372,1.006,1.006,0,0,0-.585-.071.9.9,0,0,0-.514.284,1.149,1.149,0,0,0-.283.531.9.9,0,0,0,.053.585.971.971,0,0,0,.372.443,1.078,1.078,0,0,0,1.295-.124Zm8.334-10.177a2.452,2.452,0,0,1,.762,1.826,2.589,2.589,0,1,1-5.177,0,2.452,2.452,0,0,1,.762-1.826,2.613,2.613,0,0,1,3.653,0Zm0,7.624a2.454,2.454,0,0,1,.762,1.827,2.589,2.589,0,1,1-5.177,0,2.454,2.454,0,0,1,.762-1.827,2.613,2.613,0,0,1,3.653,0Zm-1.118-5.071a.961.961,0,0,0,.284-.709,1.021,1.021,0,0,0-.284-.726.935.935,0,0,0-.709-.3,1.03,1.03,0,0,0-1.027,1.028.934.934,0,0,0,.3.709,1.021,1.021,0,0,0,.726.284A.961.961,0,0,0,273.271,290.317Zm0,7.624a.96.96,0,0,0,.284-.709,1.021,1.021,0,0,0-.284-.726.935.935,0,0,0-.709-.3,1.03,1.03,0,0,0-1.027,1.028.932.932,0,0,0,.3.709,1.021,1.021,0,0,0,.726.284A.961.961,0,0,0,273.271,297.941Zm8.352-10.177a2.474,2.474,0,0,1,.762,1.844,2.515,2.515,0,0,1-.443,1.437,2.576,2.576,0,0,1-1.171.957,2.532,2.532,0,0,1-1.507.142,2.584,2.584,0,0,1-2.039-2.04,2.514,2.514,0,0,1,.142-1.507,2.456,2.456,0,0,1,.957-1.153,2.645,2.645,0,0,1,1.47-.425A2.524,2.524,0,0,1,281.623,287.764Zm0,7.624a2.474,2.474,0,0,1,.762,1.844,2.512,2.512,0,0,1-.443,1.437,2.577,2.577,0,0,1-1.171.957,2.531,2.531,0,0,1-1.507.142,2.585,2.585,0,0,1-2.039-2.039,2.517,2.517,0,0,1,.142-1.508,2.461,2.461,0,0,1,.957-1.152,2.637,2.637,0,0,1,1.47-.425A2.524,2.524,0,0,1,281.623,295.388Zm-1.134-5.071a.938.938,0,0,0,.3-.709,1.031,1.031,0,0,0-.159-.567.98.98,0,0,0-.462-.372,1.074,1.074,0,0,0-.6-.071.89.89,0,0,0-.514.284,1.037,1.037,0,0,0-.266.531,1.111,1.111,0,0,0,.053.585.856.856,0,0,0,.373.443,1.108,1.108,0,0,0,.584.16A.982.982,0,0,0,280.488,290.317Zm0,7.624a.936.936,0,0,0,.3-.709,1.028,1.028,0,0,0-.159-.567.98.98,0,0,0-.462-.372,1.074,1.074,0,0,0-.6-.071.9.9,0,0,0-.514.284,1.037,1.037,0,0,0-.266.531,1.109,1.109,0,0,0,.053.585.856.856,0,0,0,.373.443,1.107,1.107,0,0,0,.584.16A.982.982,0,0,0,280.488,297.941Z" transform="translate(-251.286 -269.43)"/></svg>